<?xml version="1.0" standalone="no"?>
<!DOCTYPE svg PUBLIC "-//W3C//DTD SVG 20010904//EN"
 "http://www.w3.org/TR/2001/REC-SVG-20010904/DTD/svg10.dtd">
<svg version="1.0" xmlns="http://www.w3.org/2000/svg"
 width="500.000000pt" height="500.000000pt" viewBox="0 0 500.000000 500.000000"
 preserveAspectRatio="xMidYMid meet">

<g transform="translate(0.000000,500.000000) scale(0.100000,-0.100000)"
fill="#000000" stroke="none">
<path d="M1595 4130 c-322 -48 -610 -308 -714 -645 -39 -125 -42 -215 -39
-1040 l3 -790 28 -90 c72 -233 188 -400 368 -527 89 -64 127 -83 216 -114 151
-51 203 -54 1045 -54 748 0 866 4 978 31 309 77 548 299 649 607 47 143 46
131 46 1007 l0 830 -23 90 c-13 50 -46 135 -73 190 -127 257 -311 416 -566
488 -77 21 -84 22 -973 23 -492 1 -918 -2 -945 -6z m1523 -445 l2 -265 -52 0
c-29 0 -77 -3 -105 -6 l-53 -7 0 155 c0 154 0 155 -26 181 -14 15 -41 29 -59
33 -18 3 -311 4 -651 2 -603 -4 -621 -5 -685 -26 -81 -27 -147 -76 -194 -145
-20 -28 -46 -65 -58 -80 l-22 -29 0 -1007 c0 -953 1 -1009 18 -1047 19 -42 60
-74 94 -74 11 0 32 13 48 30 23 24 28 37 25 72 -1 24 -3 506 -4 1072 l-1 1030
65 12 c89 16 175 18 768 16 l512 -2 0 -88 0 -89 -172 -6 c-95 -4 -346 -7 -557
-7 -381 0 -385 0 -408 -22 -23 -21 -23 -26 -23 -218 0 -161 3 -199 16 -218 15
-22 18 -22 267 -22 l252 0 28 -83 c16 -45 31 -90 34 -99 5 -17 -13 -18 -278
-18 -249 0 -285 -2 -301 -17 -17 -15 -18 -48 -18 -623 0 -514 -2 -614 -15
-650 -35 -101 2 -179 86 -180 30 0 43 7 68 35 l31 36 0 624 0 625 93 0 94 0 6
-217 c4 -120 7 -462 7 -760 l0 -543 -130 0 c-254 0 -410 56 -556 200 -108 107
-168 208 -207 351 -22 84 -22 86 -22 909 l0 825 23 79 c70 243 239 421 477
503 44 15 118 18 640 23 325 3 669 5 765 3 l175 -3 3 -265z m267 260 c68 -7
173 -39 225 -68 125 -70 249 -199 299 -312 23 -51 51 -129 51 -142 0 -10 -36
-13 -149 -13 l-150 0 -3 53 c-2 41 2 59 20 86 26 40 27 61 7 101 -36 70 -109
90 -164 44 -39 -33 -47 -75 -26 -138 13 -37 15 -65 10 -114 -4 -35 -4 -90 0
-123 6 -54 9 -59 32 -59 22 0 24 -3 18 -31 -4 -17 -19 -61 -34 -98 -15 -36
-44 -115 -65 -176 -46 -140 -51 -148 -64 -104 -5 19 -30 86 -55 149 -25 63
-55 143 -67 178 -20 60 -21 65 -5 82 15 16 18 59 22 359 5 306 8 341 22 337 9
-2 43 -7 76 -11z m-506 -691 c1 -1 -32 -96 -74 -211 -42 -114 -79 -214 -81
-221 -5 -17 -24 -6 -24 14 0 8 -21 65 -46 127 -61 147 -114 294 -108 299 4 5
327 -2 333 -8z m-884 -41 c7 -24 22 -59 34 -78 11 -20 21 -38 21 -41 0 -2 -67
-4 -150 -4 l-150 0 0 78 c0 43 3 82 7 86 4 3 56 5 116 4 l110 -3 12 -42z m397
-23 c11 -30 56 -145 99 -254 44 -110 79 -203 79 -208 0 -4 8 -27 19 -51 10
-23 29 -67 42 -97 51 -119 62 -135 93 -135 27 0 30 5 77 135 63 172 131 350
179 465 21 50 46 116 55 148 9 31 20 57 24 57 9 0 52 -107 181 -445 119 -312
135 -348 157 -362 15 -10 22 -10 35 0 14 11 72 157 114 287 8 25 19 54 23 65
5 11 14 34 19 50 35 101 87 237 108 283 13 29 24 57 24 62 0 5 5 21 12 35 11
24 14 25 110 25 75 0 98 -3 98 -13 0 -8 -12 -42 -26 -78 -15 -35 -44 -113 -66
-174 -22 -60 -57 -157 -78 -215 -21 -58 -70 -195 -110 -305 -83 -233 -98 -272
-138 -380 -17 -44 -47 -126 -67 -183 -21 -56 -41 -105 -46 -107 -4 -3 -13 14
-19 37 -16 64 -42 136 -110 313 -34 88 -81 215 -105 283 -46 134 -70 175 -104
180 -56 9 -82 -35 -167 -273 -29 -82 -69 -195 -90 -250 -20 -55 -51 -145 -69
-200 l-32 -100 -10 36 c-6 20 -42 116 -81 215 -63 159 -125 320 -211 554 -16
41 -68 172 -116 290 -94 232 -135 341 -135 359 0 8 31 11 106 9 l106 -3 20
-55z m1593 -912 c-7 -637 -7 -638 -63 -777 -39 -97 -69 -146 -130 -213 -124
-133 -267 -206 -444 -225 l-57 -6 -3 99 c-2 55 -2 188 0 298 l4 198 116 -3
116 -4 44 115 c88 228 132 347 178 480 66 191 127 361 166 460 19 47 40 104
47 128 8 23 18 42 24 42 6 0 7 -218 2 -592z m-1724 255 c28 -66 99 -279 99
-298 0 -9 -7 -27 -16 -41 -15 -22 -17 -75 -19 -446 -2 -231 0 -432 4 -447 3
-14 5 -74 3 -133 l-3 -108 -105 0 -104 0 0 73 c0 39 0 378 -1 752 0 374 0 683
0 688 1 4 28 7 61 7 l61 0 20 -47z m818 -306 c11 -38 47 -133 90 -239 42 -103
41 -108 -15 -108 l-47 0 6 -72 c6 -65 9 -383 8 -650 l-1 -98 -314 0 -315 0 -3
88 c-5 121 10 627 20 682 l8 45 37 -80 c63 -136 56 -130 134 -133 37 -2 72 -7
76 -11 10 -10 -9 -114 -34 -194 -23 -70 -14 -125 27 -168 34 -36 54 -42 87
-30 56 21 61 45 68 286 4 134 3 242 -3 275 -10 54 -9 58 59 235 39 99 73 188
76 198 9 24 24 13 36 -26z"/>
<path d="M3575 1552 c-33 -7 -76 -43 -86 -70 -18 -48 -2 -98 44 -132 48 -36
76 -37 127 -9 58 33 76 90 46 148 -24 46 -84 75 -131 63z"/>
</g>
</svg>
